<?xml version="1.0" standalone="no"?>
<!DOCTYPE svg PUBLIC "-//W3C//DTD SVG 20010904//EN"
 "http://www.w3.org/TR/2001/REC-SVG-20010904/DTD/svg10.dtd">
<svg version="1.0" xmlns="http://www.w3.org/2000/svg"
 width="720.000000pt" height="720.000000pt" viewBox="0 0 720.000000 720.000000"
 preserveAspectRatio="xMidYMid meet">
<metadata>
Created by potrace 1.14, written by Peter Selinger 2001-2017
</metadata>
<g transform="translate(0.000000,720.000000) scale(0.100000,-0.100000)"
fill="#000000" stroke="none">
<path d="M3350 7164 c-752 -66 -1407 -323 -1977 -776 -164 -130 -431 -397
-561 -561 -417 -525 -663 -1110 -758 -1802 -26 -185 -26 -675 0 -860 95 -692
341 -1277 758 -1802 130 -164 397 -431 561 -561 525 -417 1110 -663 1802 -758
185 -26 675 -26 860 0 692 95 1277 341 1802 758 164 130 431 397 561 561 417
525 663 1110 758 1802 26 185 26 675 0 860 -95 692 -341 1277 -758 1802 -130
164 -397 431 -561 561 -523 416 -1113 664 -1797 757 -110 15 -585 28 -690 19z
m600 -822 c206 -39 352 -87 535 -177 579 -283 982 -841 1080 -1492 24 -166 20
-446 -9 -623 -46 -274 -157 -550 -313 -782 -167 -247 -193 -289 -241 -384
-100 -200 -168 -420 -197 -639 -25 -189 -35 -236 -63 -294 -38 -78 -117 -155
-199 -194 l-68 -32 -875 0 -875 0 -68 32 c-82 39 -164 119 -200 195 -27 57
-38 106 -62 293 -46 342 -185 680 -398 965 -136 182 -255 433 -318 669 -77
295 -81 675 -9 979 52 217 173 487 302 671 304 433 787 735 1303 815 55 9 111
18 125 20 14 2 120 3 235 1 155 -3 238 -9 315 -23z m637 -4758 c50 -24 85 -76
91 -134 9 -101 -23 -165 -103 -201 -38 -18 -89 -19 -975 -19 -886 0 -937 1
-975 19 -45 20 -92 70 -101 107 -13 52 1 141 28 176 55 72 -13 68 1046 68 864
0 957 -2 989 -16z m-370 -475 c40 -15 73 -48 94 -94 47 -102 -6 -218 -115
-250 -74 -22 -1118 -22 -1192 0 -105 31 -160 143 -119 243 20 46 51 81 90 98
39 17 1197 20 1242 3z"/>
<path d="M3450 5994 c-657 -82 -1175 -499 -1378 -1109 -66 -197 -77 -270 -76
-505 0 -225 13 -308 74 -493 37 -110 123 -288 183 -377 178 -262 224 -338 281
-454 132 -267 213 -548 242 -829 8 -81 36 -129 79 -138 17 -4 155 -7 308 -8
l277 -1 0 784 0 784 -62 -14 c-103 -24 -150 -42 -231 -89 -45 -27 -95 -48
-122 -52 -89 -12 -186 52 -201 134 -5 27 0 58 19 117 36 112 50 236 38 336
-19 150 -55 241 -135 344 -40 52 -46 66 -46 108 0 41 5 54 33 84 39 43 94 58
152 43 103 -27 235 -245 276 -454 8 -38 14 -132 14 -207 0 -76 0 -138 0 -138
0 0 16 5 35 11 19 6 78 18 130 28 l95 17 5 550 c4 439 8 554 19 574 54 99 156
127 231 63 67 -56 64 -31 70 -638 l5 -550 75 -11 c42 -7 100 -19 129 -28 30
-9 56 -16 58 -16 2 0 3 67 3 149 0 127 4 163 25 245 42 160 106 279 197 365
105 99 279 22 254 -112 -3 -18 -25 -55 -47 -82 -49 -59 -90 -139 -116 -221
-14 -46 -18 -92 -17 -209 0 -136 3 -158 27 -230 31 -93 33 -133 11 -181 -20
-43 -57 -70 -118 -86 -57 -15 -118 -1 -180 41 -53 36 -157 77 -240 95 l-66 14
0 -784 0 -784 278 1 c152 1 290 4 307 8 51 11 69 52 88 203 21 173 81 409 146
571 85 213 155 339 301 548 154 218 241 407 296 644 26 111 28 136 28 325 1
235 -11 309 -76 505 -186 561 -652 970 -1235 1085 -105 21 -358 34 -443 24z"/>
</g>
</svg>
